<!-- <svg xmlns="http://www.w3.org/2000/svg" viewBox="0 0 128 128"><g fill="#181616"><path fill-rule="evenodd" clip-rule="evenodd" d="M64 5.103c-33.347 0-60.388 27.035-60.388 60.388 0 26.682 17.303 49.317 41.297 57.303 3.017.56 4.125-1.31 4.125-2.905 0-1.44-.056-6.197-.082-11.243-16.8 3.653-20.345-7.125-20.345-7.125-2.747-6.98-6.705-8.836-6.705-8.836-5.48-3.748.413-3.67.413-3.67 6.063.425 9.257 6.223 9.257 6.223 5.386 9.23 14.127 6.562 17.573 5.02.542-3.903 2.107-6.568 3.834-8.076-13.413-1.525-27.514-6.704-27.514-29.843 0-6.593 2.36-11.98 6.223-16.21-.628-1.52-2.695-7.662.584-15.98 0 0 5.07-1.623 16.61 6.19C53.7 35 58.867 34.327 64 34.304c5.13.023 10.3.694 15.127 2.033 11.526-7.813 16.59-6.19 16.59-6.19 3.287 8.317 1.22 14.46.593 15.98 3.872 4.23 6.215 9.617 6.215 16.21 0 23.194-14.127 28.3-27.574 29.796 2.167 1.874 4.097 5.55 4.097 11.183 0 8.08-.07 14.583-.07 16.572 0 1.607 1.088 3.49 4.148 2.897 23.98-7.994 41.263-30.622 41.263-57.294C124.388 32.14 97.35 5.104 64 5.104z"/><path d="M26.484 91.806c-.133.3-.605.39-1.035.185-.44-.196-.685-.605-.543-.906.13-.31.603-.395 1.04-.188.44.197.69.61.537.91zm2.446 2.729c-.287.267-.85.143-1.232-.28-.396-.42-.47-.983-.177-1.254.298-.266.844-.14 1.24.28.394.426.472.984.17 1.255zM31.312 98.012c-.37.258-.976.017-1.35-.52-.37-.538-.37-1.183.01-1.44.373-.258.97-.025 1.35.507.368.545.368 1.19-.01 1.452zm3.261 3.361c-.33.365-1.036.267-1.552-.23-.527-.487-.674-1.18-.343-1.544.336-.366 1.045-.264 1.564.23.527.486.686 1.18.333 1.543zm4.5 1.951c-.147.473-.825.688-1.51.486-.683-.207-1.13-.76-.99-1.238.14-.477.823-.7 1.512-.485.683.206 1.13.756.988 1.237zm4.943.361c.017.498-.563.91-1.28.92-.723.017-1.308-.387-1.315-.877 0-.503.568-.91 1.29-.924.717-.013 1.306.387 1.306.88zm4.598-.782c.086.485-.413.984-1.126 1.117-.7.13-1.35-.172-1.44-.653-.086-.498.422-.997 1.122-1.126.714-.123 1.354.17 1.444.663zm0 0"/></g></svg> -->

<svg xmlns="http://www.w3.org/2000/svg" x="0px" y="0px" width="100" height="100" viewBox="0 0 64 64">
<path d="M32 6C17.641 6 6 17.641 6 32c0 12.277 8.512 22.56 19.955 25.286-.592-.141-1.179-.299-1.755-.479V50.85c0 0-.975.325-2.275.325-3.637 0-5.148-3.245-5.525-4.875-.229-.993-.827-1.934-1.469-2.509-.767-.684-1.126-.686-1.131-.92-.01-.491.658-.471.975-.471 1.625 0 2.857 1.729 3.429 2.623 1.417 2.207 2.938 2.577 3.721 2.577.975 0 1.817-.146 2.397-.426.268-1.888 1.108-3.57 2.478-4.774-6.097-1.219-10.4-4.716-10.4-10.4 0-2.928 1.175-5.619 3.133-7.792C19.333 23.641 19 22.494 19 20.625c0-1.235.086-2.751.65-4.225 0 0 3.708.026 7.205 3.338C28.469 19.268 30.196 19 32 19s3.531.268 5.145.738c3.497-3.312 7.205-3.338 7.205-3.338.567 1.474.65 2.99.65 4.225 0 2.015-.268 3.19-.432 3.697C46.466 26.475 47.6 29.124 47.6 32c0 5.684-4.303 9.181-10.4 10.4 1.628 1.43 2.6 3.513 2.6 5.85v8.557c-.576.181-1.162.338-1.755.479C49.488 54.56 58 44.277 58 32 58 17.641 46.359 6 32 6zM33.813 57.93C33.214 57.972 32.61 58 32 58 32.61 58 33.213 57.971 33.813 57.93zM37.786 57.346c-1.164.265-2.357.451-3.575.554C35.429 57.797 36.622 57.61 37.786 57.346zM32 58c-.61 0-1.214-.028-1.813-.07C30.787 57.971 31.39 58 32 58zM29.788 57.9c-1.217-.103-2.411-.289-3.574-.554C27.378 57.61 28.571 57.797 29.788 57.9z"></path>
</svg>